<svg xmlns="http://www.w3.org/2000/svg" xmlns:xlink="http://www.w3.org/1999/xlink" width="80" height="108" version="1.1"><defs><linearGradient id="LinearGradient188" x1="80" x2="17.6" y1="54" y2="54" gradientUnits="userSpaceOnUse"><stop id="Stop189" offset="0" stop-color="#098fb1" stop-opacity=".498"/><stop id="Stop190" offset=".32" stop-color="#098fb1"/><stop id="Stop191" offset=".77" stop-color="#098fb1"/><stop id="Stop192" offset="1" stop-color="#098fb1" stop-opacity=".498"/></linearGradient></defs><g><path fill="#16294c" fill-rule="nonzero" stroke="none" d="M 0.5 10 A 9.5 9.5 0 0 1 10 0.5 L 70 0.5 A 9.5 9.5 0 0 1 79.5 10 L 79.5 98 A 9.5 9.5 0 0 1 70 107.5 L 10 107.5 A 9.5 9.5 0 0 1 0.5 98 L 0.5 10 Z"/><path fill="none" stroke="url(#LinearGradient188)" stroke-width="1" d="M 0.5 10 A 9.5 9.5 0 0 1 10 0.5 L 70 0.5 A 9.5 9.5 0 0 1 79.5 10 L 79.5 98 A 9.5 9.5 0 0 1 70 107.5 L 10 107.5 A 9.5 9.5 0 0 1 0.5 98 L 0.5 10 Z"/></g></svg>