<?xml version="1.0" encoding="utf-8"?>
<svg version="1.1" xmlns:xlink="http://www.w3.org/1999/xlink" width="15px" height="14px" xmlns="http://www.w3.org/2000/svg">
  <g transform="matrix(1 0 0 1 -1559 -239 )">
    <path d="M 14.9975265957447 3.12112  C 14.9969680851064 2.6144  14.5918085106383 2.20384  14.0916223404255 2.2032  L 8.62795212765957 2.2032  C 8.57984042553191 2.20352  8.53372340425532 2.18408  8.49981382978723 2.14944  L 6.64420212765957 0.26944  C 6.47465425531915 0.09672  6.24406914893617 -0.00016  6.00359042553192 0.00056  L 0.974760638297873 0.00056  C 0.474654255319149 0.00112  0.0694148936170213 0.41168  0 0.9184  L 0 13.03336  C 0.0694148936170213 13.54  0.474654255319149 13.95056  0.974760638297873 14  L 14.0916223404255 14  C 14.5918085106383 13.95056  14.9969680851064 13.54  14.9975265957447 13.03336  L 14.9975265957447 3.12112  Z M 10.0697074468085 7.71016  C 10.0697074468085 7.9128  9.90734042553192 8.07728  9.70731382978723 8.07728  L 5.35914893617021 8.07728  C 5.15904255319149 8.07728  4.99683510638298 7.9128  4.99683510638298 7.71016  C 4.99683510638298 7.50736  5.15904255319149 7.34296  5.35914893617021 7.34296  L 9.70731382978723 7.34296  C 9.90734042553192 7.34296  10.0697074468085 7.50736  10.0697074468085 7.71016  Z " fill-rule="nonzero" fill="#43a7d2" stroke="none" transform="matrix(1 0 0 1 1559 239 )" />
  </g>
</svg>