{
  "accessors": [
    {
      "bufferView": 0,
      "componentType": 5126,
      "count": 1104,
      "max": [
        0.22216796875,
        0.4521484375,
        3.064317226409912
      ],
      "min": [
        -0.22216796875,
        -0.4521484375,
        0.0
      ],
      "type": "VEC3"
    },
    {
      "bufferView": 1,
      "componentType": 5126,
      "count": 1104,
      "max": [
        0.9955639839172363,
        0.9982060194015503
      ],
      "min": [
        0.004642540123313665,
        0.004245670046657324
      ],
      "type": "VEC2"
    }
  ],
  "asset": {
    "generator": "StarGIS(Tianjin) Technology Development Co.,Ltd.",
    "version": "2.0"
  },
  "bufferViews": [
    {
      "buffer": 0,
      "byteLength": 13248,
      "byteStride": 12,
      "target": 34962
    },
    {
      "buffer": 0,
      "byteLength": 8832,
      "byteOffset": 13248,
      "byteStride": 8,
      "target": 34962
    },
    {
      "buffer": 0,
      "byteLength": 244742,
      "byteOffset": 22080
    }
  ],
  "buffers": [
    {
      "byteLength": 266824,
      "uri": "data:application/octet-stream;base64,"
    }
  ],
  "extras": {
    "version": 1
  },
  "images": [
    {
      "bufferView": 2,
      "mimeType": "image/png"
    }
  ],
  "materials": [
    {
      "doubleSided": true,
      "name": "Material_50820ab1-5d9f-437e-918d-7ef066526c07_0_0",
      "pbrMetallicRoughness": {
        "baseColorTexture": {
          "index": 0
        },
        "metallicFactor": 0.0
      }
    }
  ],
  "meshes": [
    {
      "primitives": [
        {
          "attributes": {
            "POSITION": 0,
            "TEXCOORD_0": 1
          },
          "material": 0,
          "mode": 4
        }
      ]
    }
  ],
  "nodes": [
    {
      "children": [
        1
      ],
      "name": "Y_UP"
    },
    {
      "children": [
        2
      ],
      "name": "Group"
    },
    {
      "children": [
        3
      ],
      "name": "PagedLOD"
    },
    {
      "children": [
        4
      ],
      "matrix": [
        1.0,
        0.0,
        0.0,
        0.0,
        0.0,
        0.0,
        -1.0,
        0.0,
        0.0,
        1.0,
        0.0,
        0.0,
        0,
        0,
        0,
        1.0
      ],
      "name": "MatrixTransform"
    },
    {
      "mesh": 0,
      "name": "Node_50820ab1-5d9f-437e-918d-7ef066526c07_0_0"
    }
  ],
  "samplers": [
    {
      "magFilter": 9729,
      "minFilter": 9986,
      "wrapR": 10497,
      "wrapS": 33071,
      "wrapT": 33071
    }
  ],
  "scene": 0,
  "scenes": [
    {
      "nodes": [
        0
      ]
    }
  ],
  "textures": [
    {
      "sampler": 0,
      "source": 0
    }
  ]
}
