{
  "accessors": [
    {
      "bufferView": 0,
      "componentType": 5126,
      "count": 1398,
      "max": [
        0.3289794921875,
        0.232421875,
        0.7998449802398682
      ],
      "min": [
        -0.3289794921875,
        -0.232421875,
        0.0
      ],
      "type": "VEC3"
    },
    {
      "bufferView": 1,
      "componentType": 5126,
      "count": 1398,
      "max": [
        0.9995009899139404,
        0.9986060261726379
      ],
      "min": [
        0.0001998189982259646,
        0.0004994869814254344
      ],
      "type": "VEC2"
    }
  ],
  "asset": {
    "generator": "StarGIS(Tianjin) Technology Development Co.,Ltd.",
    "version": "2.0"
  },
  "bufferViews": [
    {
      "buffer": 0,
      "byteLength": 16776,
      "byteStride": 12,
      "target": 34962
    },
    {
      "buffer": 0,
      "byteLength": 11184,
      "byteOffset": 16776,
      "byteStride": 8,
      "target": 34962
    },
    {
      "buffer": 0,
      "byteLength": 305412,
      "byteOffset": 27960
    }
  ],
  "buffers": [
    {
      "byteLength": 333372,
      "uri": "data:application/octet-stream;base64,"
    }
  ],
  "extras": {
    "version": 1
  },
  "images": [
    {
      "bufferView": 2,
      "mimeType": "image/png"
    }
  ],
  "materials": [
    {
      "doubleSided": true,
      "name": "Material_2e8b4704-9ed5-4608-9ef1-1f005590384a_0_0",
      "pbrMetallicRoughness": {
        "baseColorTexture": {
          "index": 0
        },
        "metallicFactor": 0.0
      }
    }
  ],
  "meshes": [
    {
      "primitives": [
        {
          "attributes": {
            "POSITION": 0,
            "TEXCOORD_0": 1
          },
          "material": 0,
          "mode": 4
        }
      ]
    }
  ],
  "nodes": [
    {
      "children": [
        1
      ],
      "name": "Y_UP"
    },
    {
      "children": [
        2
      ],
      "name": "Group"
    },
    {
      "children": [
        3
      ],
      "name": "PagedLOD"
    },
    {
      "children": [
        4
      ],
      "matrix": [
        1.0,
        0.0,
        0.0,
        0.0,
        0.0,
        0.0,
        -1.0,
        0.0,
        0.0,
        1.0,
        0.0,
        0.0,
        0,
        0,
        0,
        1.0
      ],
      "name": "MatrixTransform"
    },
    {
      "mesh": 0,
      "name": "Node_2e8b4704-9ed5-4608-9ef1-1f005590384a_0_0"
    }
  ],
  "samplers": [
    {
      "magFilter": 9729,
      "minFilter": 9986,
      "wrapR": 10497,
      "wrapS": 33071,
      "wrapT": 33071
    }
  ],
  "scene": 0,
  "scenes": [
    {
      "nodes": [
        0
      ]
    }
  ],
  "textures": [
    {
      "sampler": 0,
      "source": 0
    }
  ]
}
