{
  "accessors": [
    {
      "bufferView": 0,
      "componentType": 5126,
      "count": 18,
      "max": [
        -0.0115966796875,
        0.877197265625,
        3.2655951976776123
      ],
      "min": [
        -0.0675048828125,
        -0.877685546875,
        2.189685106277466
      ],
      "type": "VEC3"
    },
    {
      "bufferView": 0,
      "byteOffset": 216,
      "componentType": 5126,
      "count": 156,
      "max": [
        0.0675048828125,
        0.877685546875,
        3.2655951976776123
      ],
      "min": [
        -0.0675048828125,
        -0.877685546875,
        0.0
      ],
      "type": "VEC3"
    },
    {
      "bufferView": 1,
      "componentType": 5126,
      "count": 18,
      "max": [
        0.9994999766349792,
        0.9994999766349792
      ],
      "min": [
        0.0004995469935238361,
        0.0004994570044800639
      ],
      "type": "VEC2"
    },
    {
      "bufferView": 1,
      "byteOffset": 144,
      "componentType": 5126,
      "count": 156,
      "max": [
        0.6573420166969299,
        0.6537719964981079
      ],
      "min": [
        0.009999999776482582,
        0.009999999776482582
      ],
      "type": "VEC2"
    },
    {
      "bufferView": 2,
      "componentType": 5126,
      "count": 18,
      "max": [
        0.5115470290184021,
        0.9900000095367432
      ],
      "min": [
        0.009999999776482582,
        0.6765000224113464
      ],
      "type": "VEC2"
    }
  ],
  "asset": {
    "generator": "StarGIS(Tianjin) Technology Development Co.,Ltd.",
    "version": "2.0"
  },
  "bufferViews": [
    {
      "buffer": 0,
      "byteLength": 2088,
      "byteStride": 12,
      "target": 34962
    },
    {
      "buffer": 0,
      "byteLength": 1392,
      "byteOffset": 2088,
      "byteStride": 8,
      "target": 34962
    },
    {
      "buffer": 0,
      "byteLength": 144,
      "byteOffset": 3480,
      "byteStride": 8,
      "target": 34962
    },
    {
      "buffer": 0,
      "byteLength": 2111,
      "byteOffset": 3624
    },
    {
      "buffer": 0,
      "byteLength": 58649,
      "byteOffset": 5736
    },
    {
      "buffer": 0,
      "byteLength": 1067,
      "byteOffset": 64388
    }
  ],
  "buffers": [
    {
      "byteLength": 65456,
      "uri": "data:application/octet-stream;base64,"
    }
  ],
  "extras": {
    "version": 1
  },
  "images": [
    {
      "bufferView": 3,
      "mimeType": "image/png"
    },
    {
      "bufferView": 4,
      "mimeType": "image/png"
    },
    {
      "bufferView": 5,
      "mimeType": "image/jpeg"
    }
  ],
  "materials": [
    {
      "alphaMode": "MASK",
      "doubleSided": true,
      "name": "Material_a5e48f96-1313-47ea-a7d9-38011bbf69e6_0_0",
      "occlusionTexture": {
        "index": 0,
        "texCoord": 1
      },
      "pbrMetallicRoughness": {
        "baseColorTexture": {
          "index": 1
        },
        "metallicFactor": 0.0
      }
    },
    {
      "alphaMode": "MASK",
      "doubleSided": true,
      "name": "Material_a5e48f96-1313-47ea-a7d9-38011bbf69e6_1_0",
      "pbrMetallicRoughness": {
        "baseColorTexture": {
          "index": 2
        },
        "metallicFactor": 0.0
      }
    }
  ],
  "meshes": [
    {
      "primitives": [
        {
          "attributes": {
            "POSITION": 0,
            "TEXCOORD_0": 2,
            "TEXCOORD_1": 4
          },
          "material": 0,
          "mode": 4
        }
      ]
    },
    {
      "primitives": [
        {
          "attributes": {
            "POSITION": 1,
            "TEXCOORD_0": 3
          },
          "material": 1,
          "mode": 4
        }
      ]
    }
  ],
  "nodes": [
    {
      "children": [
        1
      ],
      "name": "Y_UP"
    },
    {
      "children": [
        2
      ],
      "name": "Group"
    },
    {
      "children": [
        3
      ],
      "name": "PagedLOD"
    },
    {
      "children": [
        4,
        5
      ],
      "matrix": [
        1.0,
        0.0,
        0.0,
        0.0,
        0.0,
        0.0,
        -1.0,
        0.0,
        0.0,
        1.0,
        0.0,
        0.0,
        0,
        0,
        0,
        1.0
      ],
      "name": "MatrixTransform"
    },
    {
      "mesh": 0,
      "name": "Node_a5e48f96-1313-47ea-a7d9-38011bbf69e6_0_0"
    },
    {
      "mesh": 1,
      "name": "Node_a5e48f96-1313-47ea-a7d9-38011bbf69e6_1_0"
    }
  ],
  "samplers": [
    {
      "magFilter": 9729,
      "minFilter": 9986,
      "wrapR": 10497,
      "wrapS": 33071,
      "wrapT": 33071
    },
    {
      "magFilter": 9729,
      "minFilter": 9986,
      "wrapR": 10497,
      "wrapS": 33071,
      "wrapT": 33071
    },
    {
      "magFilter": 9729,
      "minFilter": 9986,
      "wrapR": 10497,
      "wrapS": 33071,
      "wrapT": 33071
    }
  ],
  "scene": 0,
  "scenes": [
    {
      "nodes": [
        0
      ]
    }
  ],
  "textures": [
    {
      "sampler": 0,
      "source": 0
    },
    {
      "sampler": 1,
      "source": 1
    },
    {
      "sampler": 2,
      "source": 0
    }
  ]
}
