{
  "accessors": [
    {
      "bufferView": 0,
      "componentType": 5126,
      "count": 48,
      "max": [
        4.052490234375,
        4.296875,
        7.007290363311768
      ],
      "min": [
        -4.052490234375,
        -4.296875,
        0.0
      ],
      "type": "VEC3"
    },
    {
      "bufferView": 1,
      "componentType": 5126,
      "count": 48,
      "max": [
        0.9995009899139404,
        0.9995009899139404
      ],
      "min": [
        0.0004995170165784657,
        0.0004994869814254344
      ],
      "type": "VEC2"
    }
  ],
  "asset": {
    "generator": "StarGIS(Tianjin) Technology Development Co.,Ltd.",
    "version": "2.0"
  },
  "bufferViews": [
    {
      "buffer": 0,
      "byteLength": 576,
      "byteStride": 12,
      "target": 34962
    },
    {
      "buffer": 0,
      "byteLength": 384,
      "byteOffset": 576,
      "byteStride": 8,
      "target": 34962
    },
    {
      "buffer": 0,
      "byteLength": 269395,
      "byteOffset": 960
    }
  ],
  "buffers": [
    {
      "byteLength": 270356,
      "uri": "data:application/octet-stream;base64,"
    }
  ],
  "extras": {
    "version": 1
  },
  "images": [
    {
      "bufferView": 2,
      "mimeType": "image/png"
    }
  ],
  "materials": [
    {
      "alphaMode": "MASK",
      "doubleSided": true,
      "name": "Material_f98fa134-ea01-4955-9a9c-5ee5b9df877f_0_0",
      "pbrMetallicRoughness": {
        "baseColorTexture": {
          "index": 0
        },
        "metallicFactor": 0.0
      }
    }
  ],
  "meshes": [
    {
      "primitives": [
        {
          "attributes": {
            "POSITION": 0,
            "TEXCOORD_0": 1
          },
          "material": 0,
          "mode": 4
        }
      ]
    }
  ],
  "nodes": [
    {
      "children": [
        1
      ],
      "name": "Y_UP"
    },
    {
      "children": [
        2
      ],
      "name": "Group"
    },
    {
      "children": [
        3
      ],
      "name": "PagedLOD"
    },
    {
      "children": [
        4
      ],
      "matrix": [
        1.0,
        0.0,
        0.0,
        0.0,
        0.0,
        0.0,
        -1.0,
        0.0,
        0.0,
        1.0,
        0.0,
        0.0,
        0,
        0,
        0,
        1.0
      ],
      "name": "MatrixTransform"
    },
    {
      "mesh": 0,
      "name": "Node_f98fa134-ea01-4955-9a9c-5ee5b9df877f_0_0"
    }
  ],
  "samplers": [
    {
      "magFilter": 9729,
      "minFilter": 9986,
      "wrapR": 10497,
      "wrapS": 33071,
      "wrapT": 33071
    }
  ],
  "scene": 0,
  "scenes": [
    {
      "nodes": [
        0
      ]
    }
  ],
  "textures": [
    {
      "sampler": 0,
      "source": 0
    }
  ]
}
