{
  "accessors": [
    {
      "bufferView": 0,
      "componentType": 5126,
      "count": 744,
      "max": [
        4.6439208984375,
        4.349853515625,
        10.599775314331055
      ],
      "min": [
        -3.7088623046875,
        -4.138916015625,
        0.0
      ],
      "type": "VEC3"
    },
    {
      "bufferView": 0,
      "byteOffset": 8928,
      "componentType": 5126,
      "count": 258,
      "max": [
        8.4349365234375,
        7.980712890625,
        14.110774993896484
      ],
      "min": [
        -8.4349365234375,
        -7.980712890625,
        4.396445274353027
      ],
      "type": "VEC3"
    },
    {
      "bufferView": 1,
      "componentType": 5126,
      "count": 744,
      "max": [
        2.87103009223938,
        5.819129943847656
      ],
      "min": [
        -1.8647799491882324,
        -1.8710299730300903
      ],
      "type": "VEC2"
    },
    {
      "bufferView": 1,
      "byteOffset": 5952,
      "componentType": 5126,
      "count": 258,
      "max": [
        0.9996709823608398,
        1.0002299547195435
      ],
      "min": [
        0.0,
        0.0
      ],
      "type": "VEC2"
    }
  ],
  "asset": {
    "generator": "StarGIS(Tianjin) Technology Development Co.,Ltd.",
    "version": "2.0"
  },
  "bufferViews": [
    {
      "buffer": 0,
      "byteLength": 12024,
      "byteStride": 12,
      "target": 34962
    },
    {
      "buffer": 0,
      "byteLength": 8016,
      "byteOffset": 12024,
      "byteStride": 8,
      "target": 34962
    },
    {
      "buffer": 0,
      "byteLength": 501936,
      "byteOffset": 20040
    },
    {
      "buffer": 0,
      "byteLength": 118369,
      "byteOffset": 521976
    }
  ],
  "buffers": [
    {
      "byteLength": 640348,
      "uri": "data:application/octet-stream;base64,"
    }
  ],
  "extras": {
    "version": 1
  },
  "images": [
    {
      "bufferView": 2,
      "mimeType": "image/png"
    },
    {
      "bufferView": 3,
      "mimeType": "image/png"
    }
  ],
  "materials": [
    {
      "doubleSided": true,
      "name": "Material_97d885bc-28d2-48df-a0f9-81750d45c498_0_0",
      "pbrMetallicRoughness": {
        "baseColorTexture": {
          "index": 0
        },
        "metallicFactor": 0.0
      }
    },
    {
      "alphaMode": "MASK",
      "doubleSided": true,
      "name": "Material_97d885bc-28d2-48df-a0f9-81750d45c498_0_1",
      "pbrMetallicRoughness": {
        "baseColorTexture": {
          "index": 1
        },
        "metallicFactor": 0.0
      }
    }
  ],
  "meshes": [
    {
      "primitives": [
        {
          "attributes": {
            "POSITION": 0,
            "TEXCOORD_0": 2
          },
          "material": 0,
          "mode": 4
        }
      ]
    },
    {
      "primitives": [
        {
          "attributes": {
            "POSITION": 1,
            "TEXCOORD_0": 3
          },
          "material": 1,
          "mode": 4
        }
      ]
    }
  ],
  "nodes": [
    {
      "children": [
        1
      ],
      "name": "Y_UP"
    },
    {
      "children": [
        2
      ],
      "name": "Group"
    },
    {
      "children": [
        3
      ],
      "name": "PagedLOD"
    },
    {
      "children": [
        4,
        5
      ],
      "matrix": [
        1.0,
        0.0,
        0.0,
        0.0,
        0.0,
        0.0,
        -1.0,
        0.0,
        0.0,
        1.0,
        0.0,
        0.0,
        0,
        0,
        0,
        1.0
      ],
      "name": "MatrixTransform"
    },
    {
      "mesh": 0,
      "name": "Node_97d885bc-28d2-48df-a0f9-81750d45c498_0_0"
    },
    {
      "mesh": 1,
      "name": "Node_97d885bc-28d2-48df-a0f9-81750d45c498_0_1"
    }
  ],
  "samplers": [
    {
      "magFilter": 9729,
      "minFilter": 9986,
      "wrapR": 10497,
      "wrapS": 10497,
      "wrapT": 10497
    },
    {
      "magFilter": 9729,
      "minFilter": 9986,
      "wrapR": 10497,
      "wrapS": 33071,
      "wrapT": 10497
    }
  ],
  "scene": 0,
  "scenes": [
    {
      "nodes": [
        0
      ]
    }
  ],
  "textures": [
    {
      "sampler": 0,
      "source": 1
    },
    {
      "sampler": 1,
      "source": 0
    }
  ]
}
